HIERARCHY
ROOT Hips
{
 OFFSET 0.000000 0.000000 0.000000
 CHANNELS 6 Xposition Yposition Zposition Yrotation Xrotation Zrotation
 JOINT Chest
 {
  OFFSET 0.000000 9.581000 -0.001100
  CHANNELS 3 Yrotation Xrotation Zrotation
  JOINT Chest2
  {
   OFFSET 0.000000 9.561100 0.002200
   CHANNELS 3 Yrotation Xrotation Zrotation
   JOINT Chest3
   {
    OFFSET 0.000000 9.521100 0.000000
    CHANNELS 3 Yrotation Xrotation Zrotation
    JOINT Chest4
    {
     OFFSET 0.000000 9.511400 0.000000
     CHANNELS 3 Yrotation Xrotation Zrotation
     JOINT Neck
     {
      OFFSET 0.000000 14.375100 0.000000
      CHANNELS 3 Yrotation Xrotation Zrotation
      JOINT Head
      {
       OFFSET 0.000000 8.901200 0.004600
       CHANNELS 3 Yrotation Xrotation Zrotation
       End Site
       {
        OFFSET 0.000000 16.962200 0.002400
       }
      }
     }
     JOINT RightCollar
     {
      OFFSET -2.920100 9.518800 0.000000
      CHANNELS 3 Yrotation Xrotation Zrotation
      JOINT RightShoulder
      {
       OFFSET -13.664500 0.000000 0.000000
       CHANNELS 3 Yrotation Xrotation Zrotation
       JOINT RightElbow
       {
        OFFSET 0.000000 -29.999200 0.000000
        CHANNELS 3 Yrotation Xrotation Zrotation
        JOINT RightWrist
        {
         OFFSET 0.000000 -24.253600 0.000000
         CHANNELS 3 Yrotation Xrotation Zrotation
         End Site
         {
          OFFSET 0.000000 -17.918900 0.000000
         }
        }
       }
      }
     }
     JOINT LeftCollar
     {
      OFFSET 2.920100 9.518800 0.000000
      CHANNELS 3 Yrotation Xrotation Zrotation
      JOINT LeftShoulder
      {
       OFFSET 13.664500 0.000000 0.000000
       CHANNELS 3 Yrotation Xrotation Zrotation
       JOINT LeftElbow
       {
        OFFSET 0.000000 -29.999200 0.000000
        CHANNELS 3 Yrotation Xrotation Zrotation
        JOINT LeftWrist
        {
         OFFSET 0.000000 -24.253600 0.000000
         CHANNELS 3 Yrotation Xrotation Zrotation
         End Site
         {
          OFFSET 0.000000 -17.918900 0.000000
         }
        }
       }
      }
     }
    }
   }
  }
 }
 JOINT RightHip
 {
  OFFSET -7.797300 0.005300 0.000500
  CHANNELS 3 Yrotation Xrotation Zrotation
  JOINT RightKnee
  {
   OFFSET 0.000000 -40.663400 -0.000500
   CHANNELS 3 Yrotation Xrotation Zrotation
   JOINT RightAnkle
   {
    OFFSET 0.000000 -39.523700 -0.000900
    CHANNELS 3 Yrotation Xrotation Zrotation
    JOINT RightToe
    {
     OFFSET 0.000000 -6.418000 14.485300
     CHANNELS 3 Yrotation Xrotation Zrotation
     End Site
     {
      OFFSET 0.000000 -1.465200 6.326400
     }
    }
   }
  }
 }
 JOINT LeftHip
 {
  OFFSET 7.797300 0.005300 0.000500
  CHANNELS 3 Yrotation Xrotation Zrotation
  JOINT LeftKnee
  {
   OFFSET 0.000000 -40.663400 -0.000500
   CHANNELS 3 Yrotation Xrotation Zrotation
   JOINT LeftAnkle
   {
    OFFSET 0.000000 -39.523700 -0.000900
    CHANNELS 3 Yrotation Xrotation Zrotation
    JOINT LeftToe
    {
     OFFSET 0.000000 -6.418000 14.485300
     CHANNELS 3 Yrotation Xrotation Zrotation
     End Site
     {
      OFFSET 0.000000 -1.465200 6.326400
     }
    }
   }
  }
 }
}
MOTION
Frames: 11
Frame Time: 0.008333
-14.475442 126.912768 24.697810 -168.539148 -48.752023 -2.730722 -2.760089 26.375033 0.150445 -0.457857 4.445617 0.120051 -0.725659 7.039116 0.154326 -2.234990 21.619329 0.220760 2.152340 18.029856 0.041127 2.262335 -6.724959 -0.445902 -2.415942 1.642977 -1.362886 3.885798 -0.065362 -5.039694 -83.318300 -56.621035 138.283615 3.925153 -0.916659 -15.394543 -5.314255 -2.926468 2.691915 -9.189628 -2.282121 4.377413 65.400497 -53.967856 -112.107463 -4.023860 -1.826050 10.213754 -4.474190 -23.708784 -5.224159 -8.000089 78.153516 -7.221071 6.552339 -14.175165 3.049082 0.000217 -0.003764 0.000096 6.131614 5.729377 1.533727 128.526896 65.360789 148.001702 6.469785 12.536254 0.989597 0.001014 -0.002132 0.000449
-14.475383 126.912708 24.698265 -168.537416 -48.754329 -2.728436 -2.763696 26.372607 0.141395 -0.457652 4.438135 0.113797 -0.722822 7.043762 0.158837 -2.232862 21.608051 0.205138 2.115999 17.968001 0.020396 2.227916 -6.793895 -0.459417 -2.393078 1.644617 -1.330823 4.030751 -0.012394 -5.025603 -83.653605 -56.823143 138.414128 4.288985 -0.424887 -15.548014 -5.421904 -2.912954 2.626420 -9.247784 -2.252289 4.460228 65.308034 -53.981486 -112.018567 -4.174494 -1.709003 10.148991 -4.481320 -23.706995 -5.228490 -8.007947 78.165958 -7.226671 6.564224 -14.217197 3.027739 0.001408 -0.003489 0.000624 6.122957 5.728128 1.526270 128.544293 65.358690 148.017773 6.468478 12.537742 0.983829 0.002358 -0.002213 0.001045
-14.474783 126.912285 24.698915 -168.533860 -48.753038 -2.730185 -2.762398 26.363065 0.136592 -0.448497 4.426690 0.100879 -0.731196 7.056958 0.172615 -2.225759 21.598117 0.189557 2.077741 17.904835 0.002360 2.190746 -6.864243 -0.469680 -2.365091 1.624991 -1.284406 4.067752 0.036363 -5.036019 -83.855864 -57.005883 138.490856 4.656953 0.090780 -15.643794 -5.533492 -2.901838 2.564320 -9.307419 -2.218757 4.544212 65.229194 -53.985586 -111.954527 -4.278806 -1.601055 10.047283 -4.486798 -23.708161 -5.226564 -8.012877 78.171554 -7.232331 6.568812 -14.243711 3.014853 0.000558 -0.003271 0.000247 6.112224 5.717841 1.525290 128.567287 65.354534 148.037544 6.464096 12.543327 0.976858 0.005005 -0.004525 0.002218
-14.474084 126.912291 24.699131 -168.531306 -48.754550 -2.731975 -2.756326 26.356647 0.129438 -0.443568 4.427525 0.101797 -0.733329 7.050402 0.168215 -2.214949 21.598414 0.184614 2.037498 17.840094 -0.013366 2.150996 -6.936205 -0.477032 -2.336498 1.606294 -1.237552 4.053018 0.075163 -5.050916 -83.910825 -57.143899 138.474834 5.001874 0.596217 -15.677833 -5.597341 -2.889509 2.546773 -9.417084 -2.195825 4.586897 65.152605 -53.969241 -111.902899 -4.364393 -1.493817 9.908824 -4.491283 -23.708151 -5.224526 -8.014278 78.180346 -7.233873 6.570614 -14.259057 3.006740 0.000061 -0.002602 0.000027 6.107244 5.716726 1.524645 128.572239 65.352802 148.042968 6.460171 12.545080 0.973555 0.006222 -0.005317 0.002756
-14.474847 126.912564 24.699281 -168.529234 -48.757962 -2.724642 -2.737233 26.351253 0.114788 -0.452663 4.429936 0.106969 -0.729751 7.047213 0.168667 -2.210050 21.596050 0.173728 1.996358 17.774494 -0.027096 2.109993 -7.009076 -0.482091 -2.309482 1.583731 -1.187220 4.155464 0.121893 -5.045109 -83.951731 -57.249647 138.347798 5.280893 1.065672 -15.660713 -5.661400 -2.879743 2.534139 -9.526819 -2.172656 4.630277 65.067896 -53.934478 -111.853809 -4.442741 -1.379080 9.747610 -4.492742 -23.705778 -5.233426 -8.007964 78.185911 -7.227494 6.571148 -14.270213 2.998784 0.000229 -0.001381 0.000101 6.103686 5.718594 1.516360 128.567974 65.353433 148.035874 6.467204 12.566520 0.938529 0.002992 -0.000512 0.001326
-14.474363 126.912451 24.699581 -168.528715 -48.757478 -2.723099 -2.732711 26.348632 0.110374 -0.448849 4.427637 0.102814 -0.717815 7.038731 0.155741 -2.205745 21.598011 0.173001 1.955265 17.709068 -0.039560 2.068771 -7.081747 -0.485781 -2.278703 1.564015 -1.132392 4.189778 0.162620 -5.056903 -83.834201 -57.286129 138.158274 5.475525 1.492700 -15.632046 -5.844289 -2.888387 2.440387 -9.514320 -2.118165 4.761969 64.967048 -53.888602 -111.802141 -4.509750 -1.247102 9.593235 -4.493745 -23.710134 -5.233194 -8.006438 78.192469 -7.224764 6.568977 -14.271061 2.990967 0.000270 -0.001838 0.000120 6.102092 5.716939 1.515020 128.569888 65.352091 148.035306 6.458804 12.560197 0.959451 0.003140 -0.003373 0.001391
-14.474447 126.912467 24.699785 -168.532330 -48.758153 -2.715104 -2.727301 26.347035 0.101643 -0.450581 4.428088 0.104956 -0.713724 7.035852 0.150594 -2.195727 21.591734 0.155915 1.915834 17.643207 -0.053478 2.029601 -7.154679 -0.491317 -2.217215 1.525481 -1.068750 4.150123 0.217837 -5.085173 -83.612956 -57.276982 137.937257 5.604995 1.900216 -15.628393 -5.964755 -2.893139 2.389858 -9.514897 -2.084686 4.849854 64.827893 -53.848445 -111.751665 -4.572356 -1.094828 9.467789 -4.490428 -23.714073 -5.238642 -7.999943 78.198890 -7.217785 6.571491 -14.268988 2.988306 0.000144 -0.001497 0.000064 6.100319 5.711691 1.505381 128.578399 65.348783 148.042302 6.476452 12.590389 0.893553 -0.000357 0.001560 -0.000158
-14.474918 126.912610 24.699928 -168.526258 -48.758995 -2.712289 -2.721342 26.343385 0.090158 -0.448972 4.426490 0.102927 -0.700447 7.027465 0.131730 -2.195554 21.598594 0.166291 1.887394 17.594723 -0.057953 1.986507 -7.247294 -0.510748 -2.212822 1.523903 -1.033015 4.141842 0.219537 -5.111330 -83.337568 -57.241852 137.706343 5.698912 2.322512 -15.678023 -6.017384 -2.889036 2.388532 -9.508240 -2.072221 4.882898 64.646960 -53.844703 -111.711175 -4.638491 -0.917741 9.379990 -4.490663 -23.715687 -5.247364 -8.001307 78.203756 -7.216573 6.573684 -14.269640 2.985726 -0.000084 -0.001466 -0.000037 6.095527 5.707223 1.501985 128.593032 65.344003 148.054308 6.479833 12.598099 0.863054 -0.000733 0.005248 -0.000325
-14.474704 126.912848 24.699846 -168.525991 -48.760362 -2.709540 -2.713512 26.341258 0.079911 -0.447372 4.425408 0.101242 -0.695715 7.026310 0.131156 -2.189077 21.597002 0.159534 1.850812 17.526511 -0.077092 1.951648 -7.322438 -0.522456 -2.210388 1.522656 -1.001408 4.112651 0.206514 -5.153950 -83.049903 -57.205167 137.494163 5.782589 2.780781 -15.798478 -6.069196 -2.885615 2.385938 -9.648235 -2.105350 4.962054 64.585312 -53.824866 -111.610549 -4.708132 -0.709322 9.332110 -4.490011 -23.719667 -5.252032 -8.004284 78.211164 -7.217662 6.584171 -14.262980 2.982110 -0.000039 -0.001213 -0.000017 6.096970 5.708073 1.501301 128.590111 65.342978 148.048309 6.478432 12.593359 0.874957 -0.002933 0.004898 -0.001300
-14.474386 126.912919 24.699857 -168.523801 -48.760057 -2.708935 -2.704161 26.338312 0.072831 -0.445686 4.424358 0.099557 -0.693415 7.024059 0.131651 -2.189189 21.599541 0.163156 1.807880 17.435636 -0.122843 1.924911 -7.378880 -0.526149 -2.170549 1.492335 -0.983765 4.053890 0.229031 -5.174810 -82.841177 -57.221953 137.355130 5.865019 3.282232 -15.952258 -6.146075 -2.902820 2.348516 -9.694193 -2.115779 5.058018 64.481728 -53.844506 -111.508855 -4.794639 -0.471643 9.310331 -4.492841 -23.723172 -5.251826 -8.026428 78.215767 -7.236236 6.579741 -14.264579 2.974086 -0.000593 -0.001502 -0.000263 6.096069 5.708103 1.499843 128.607886 65.342034 148.063213 6.480694 12.579603 0.890970 -0.003522 0.006422 -0.001561
-14.474495 126.912962 24.699945 -168.516602 -48.759010 -2.709679 -2.698416 26.334508 0.067482 -0.439819 4.420785 0.093243 -0.699372 7.025508 0.134166 -2.186429 21.600723 0.166780 1.772701 17.364280 -0.155533 1.893446 -7.454078 -0.542524 -2.154128 1.474300 -0.971482 3.998890 0.205871 -5.237481 -82.658284 -57.201240 137.233753 5.966633 3.838743 -16.053925 -6.216810 -2.918374 2.315506 -9.724534 -2.120936 5.142773 64.361016 -53.892532 -111.393051 -4.899971 -0.206328 9.290196 -4.497102 -23.726167 -5.255948 -8.043349 78.219017 -7.250593 6.584433 -14.267749 2.969211 -0.000514 -0.001203 -0.000228 6.094065 5.706141 1.497237 128.610490 65.342597 148.070869 6.476992 12.576073 0.894913 -0.001805 0.007019 -0.000800
